<svg xmlns="http://www.w3.org/2000/svg" viewBox="0 0 6866.63 932"><defs><style>.cls-1{fill:#db241e;}</style></defs><g id="图层_2" data-name="图层 2"><g id="图层_1-2" data-name="图层 1"><path class="cls-1" d="M0,932V0H1098V932Zm1014-78V80H78.21V854Z"/><path class="cls-1" d="M958.72,672.44v119H131.52V672.47H259.73V711.8H358V672.46H486.79v39.35H604.1V672.45H732.68v39.37h97.49V672.44Z"/><path class="cls-1" d="M830.2,403.34H958.65V519.5H131.57v-123H259.62v43.23H830.2Z"/><path class="cls-1" d="M958.69,381.53H131.53V302.31H495V262.43H623.79V302h334.9Z"/><path class="cls-1" d="M131.45,164.13H495V126.51H623.78V164H958.59v79.44H131.45Z"/><path class="cls-1" d="M958.85,557.56v78.8H131.44v-78.8Z"/><path d="M1308.1,674.91V226a34.91,34.91,0,0,1,2.59-13.42,33.29,33.29,0,0,1,7.27-11,33.83,33.83,0,0,1,10.84-7.27,34.53,34.53,0,0,1,13.58-2.59H1442a165.92,165.92,0,0,1,45.11,6.14A170.22,170.22,0,0,1,1528,215.37a180.68,180.68,0,0,1,34.93,27,168.49,168.49,0,0,1,27,34.77,178.82,178.82,0,0,1,17.46,40.91,161.49,161.49,0,0,1,6.31,45.11q0,70.5-50.77,121.27-50.13,50.13-121,50.13h-65.33V674.91a34.28,34.28,0,1,1-68.56,0Zm68.56-414.59V466H1442a98.27,98.27,0,0,0,39.61-8.08,106,106,0,0,0,32.66-22,104.49,104.49,0,0,0,22.32-32.66,102.36,102.36,0,0,0,0-80.52,103.35,103.35,0,0,0-55.14-54.5,100.43,100.43,0,0,0-39.45-7.92Z"/><path d="M2090.72,627.05q0,13.59-10.67,24.58-72.12,57.57-162.67,57.56-107.37,0-183-75.67t-75.68-183q0-107,75.68-182.72,76-76,183-76,91.84,0,165.9,60.47,9,8.41,9.06,23.61a34.76,34.76,0,0,1-2.59,13.59,33.81,33.81,0,0,1-7.28,10.83,33.28,33.28,0,0,1-11,7.28,35.13,35.13,0,0,1-13.42,2.58q-13.27,0-23.61-9.7a186,186,0,0,0-54.17-29.75,189.19,189.19,0,0,0-62.9-10.35q-78.92,0-134.86,55.95-55.3,55.29-55.3,134.21,0,79.23,55.3,134.53,55.62,55.62,134.86,55.62,58.53,0,104.78-30.72V509.66H1932.9q-14.55,0-24.41-9.87t-9.87-24.41a34.91,34.91,0,0,1,2.59-13.42,33.06,33.06,0,0,1,7.28-11,33.51,33.51,0,0,1,10.83-7.27,34.53,34.53,0,0,1,13.58-2.59h123.86a31.39,31.39,0,0,1,12.94,2.75,35.93,35.93,0,0,1,10.83,7.44,35.39,35.39,0,0,1,7.44,11,32.48,32.48,0,0,1,2.75,13.1Z"/><path d="M2149.25,637.4a32.76,32.76,0,0,1-6.79-20.7,34.94,34.94,0,0,1,2.59-13.42,33,33,0,0,1,7.28-11,33.54,33.54,0,0,1,10.83-7.28,34.71,34.71,0,0,1,13.58-2.59q19.08,0,28.78,15.85,13.59,21,34,31.69a93.29,93.29,0,0,0,44,10.67,84.49,84.49,0,0,0,34.77-7.27,91.32,91.32,0,0,0,47.7-48.51,89.24,89.24,0,0,0,7.11-35.41,85.12,85.12,0,0,0-6.63-33.48,89.83,89.83,0,0,0-17.95-27.48,94,94,0,0,0-26.35-19.25,91.15,91.15,0,0,0-31.86-9.05,130.51,130.51,0,0,1-48.18-13.58,139.85,139.85,0,0,1-39.13-29.27,134.58,134.58,0,0,1-26.36-41.07,127.19,127.19,0,0,1-9.54-49q0-31.68,12-57.4t35.26-45.76h-.33q37.18-32.34,87.32-32.34a133.14,133.14,0,0,1,32.34,4,130.75,130.75,0,0,1,31.21,12.29,138.4,138.4,0,0,1,28.13,20.54,144.38,144.38,0,0,1,23.45,28.78,36.28,36.28,0,0,1,4.85,18.43,34.58,34.58,0,0,1-2.59,13.59,33.78,33.78,0,0,1-7.27,10.83,33.32,33.32,0,0,1-11,7.28,35.09,35.09,0,0,1-13.42,2.58,31.47,31.47,0,0,1-11.48-1.94,29.91,29.91,0,0,1-9.06-5.49,63.52,63.52,0,0,1-7.76-8.25q-3.72-4.68-7.92-10.84a47.37,47.37,0,0,0-21.18-17,73.81,73.81,0,0,0-29-5.66,60,60,0,0,0-23.93,5,68.76,68.76,0,0,0-20.7,13.74,70.19,70.19,0,0,0-14.71,20.7,59.67,59.67,0,0,0-5.66,25.87,61.8,61.8,0,0,0,4.69,23.93,69,69,0,0,0,12.77,20.22A67.68,67.68,0,0,0,2272,385a60.13,60.13,0,0,0,23.45,6.63A150.58,150.58,0,0,1,2352,407.14,162.79,162.79,0,0,1,2430,490.25a147,147,0,0,1,11.64,57.89q0,75.68-55.94,122.89h.32q-45,38.16-102.19,38.16a159.2,159.2,0,0,1-38.17-4.69,167.06,167.06,0,0,1-36.7-13.74,159.78,159.78,0,0,1-33-22.64A154.32,154.32,0,0,1,2149.25,637.4Z"/><path d="M2554.47,214.72l92.17,332.13L2738.48,215q2.58-10,11.8-16.65a36.09,36.09,0,0,1,40.75-.65,30.92,30.92,0,0,1,12.78,17L2896,546.85l92.5-332.13a31.76,31.76,0,0,1,8.08-12.93,33,33,0,0,1,24.26-10,32.5,32.5,0,0,1,24.09,10,33.33,33.33,0,0,1,9.86,24.25,64.16,64.16,0,0,1-2.26,13.58L2930.58,681.38A46,46,0,0,1,2917,701.59a31.73,31.73,0,0,1-21,7.6q-14.55,0-23.93-10.35A48,48,0,0,1,2861.69,682l-90.22-326.95-90.23,326.3a46,46,0,0,1-13.58,20.21,33.27,33.27,0,0,1-45.28-2.75,43.13,43.13,0,0,1-10-16.81L2489.79,239.3a53.39,53.39,0,0,1-1.94-13.26,34.29,34.29,0,0,1,58.53-24.25A37.3,37.3,0,0,1,2554.47,214.72Z"/><path d="M3061.88,659.39,3234.57,215q10.35-23.28,32.66-23.28,23,0,32.67,23.28l173.34,446a37.18,37.18,0,0,1,2.58,13.9,34.21,34.21,0,0,1-34.28,34.28,32,32,0,0,1-23.93-10,36.62,36.62,0,0,1-7.76-11L3350,534.56H3184.44l-60.15,153.61a36.8,36.8,0,0,1-7.76,11,33,33,0,0,1-24.25,10,32.53,32.53,0,0,1-24.1-10,33.29,33.29,0,0,1-9.86-24.26A36.85,36.85,0,0,1,3061.88,659.39ZM3323.5,466l-56.27-145.21L3211,466Z"/><path d="M3523,674.91V226a34.91,34.91,0,0,1,2.59-13.42,33.29,33.29,0,0,1,7.27-11,33.83,33.83,0,0,1,10.84-7.27,34.53,34.53,0,0,1,13.58-2.59h99.61A165.92,165.92,0,0,1,3702,197.9,170.22,170.22,0,0,1,3743,215.37a180.68,180.68,0,0,1,34.93,27,168.49,168.49,0,0,1,27,34.77,178.82,178.82,0,0,1,17.46,40.91,161.49,161.49,0,0,1,6.31,45.11q0,70.5-50.77,121.27-50.13,50.13-121,50.13H3591.6V674.91a34.28,34.28,0,1,1-68.56,0Zm68.56-414.59V466h65.33a98.27,98.27,0,0,0,39.61-8.08,106.16,106.16,0,0,0,32.67-22,104.63,104.63,0,0,0,22.31-32.66,102.36,102.36,0,0,0,0-80.52,103.26,103.26,0,0,0-55.14-54.5,100.43,100.43,0,0,0-39.45-7.92Z"/><path d="M4054.06,674.91V226a35.09,35.09,0,0,1,2.58-13.42,33.32,33.32,0,0,1,7.28-11,33.78,33.78,0,0,1,10.83-7.27,34.58,34.58,0,0,1,13.59-2.59h299.14a34.29,34.29,0,0,1,24.25,58.53,33,33,0,0,1-24.25,10H4122.62V416.2h190.15a34.28,34.28,0,1,1,0,68.56H4122.62V674.91a34.28,34.28,0,1,1-68.56,0Z"/><path d="M4559.2,674.91a34.28,34.28,0,1,1-68.56,0V226a34.28,34.28,0,1,1,68.56,0Z"/><path d="M4623.56,674.91V226a35.09,35.09,0,0,1,2.58-13.42,33.32,33.32,0,0,1,7.28-11,33.78,33.78,0,0,1,10.83-7.27,34.61,34.61,0,0,1,13.59-2.59q15.19,0,26.52,12.61l288.46,370.94V226a34.28,34.28,0,1,1,68.56,0V674.91a34.76,34.76,0,0,1-2.58,13.59,33.81,33.81,0,0,1-7.28,10.83,33.28,33.28,0,0,1-11,7.28,35.18,35.18,0,0,1-13.43,2.58q-15.19,0-26.19-12L4692.12,326.29V674.91a34.28,34.28,0,1,1-68.56,0Z"/><path d="M5092.8,659.39,5265.5,215q10.35-23.28,32.66-23.28,23,0,32.66,23.28l173.34,446a37,37,0,0,1,2.59,13.9,34.21,34.21,0,0,1-34.28,34.28,32,32,0,0,1-23.93-10,36.62,36.62,0,0,1-7.76-11L5381,534.56H5215.37l-60.15,153.61a37,37,0,0,1-7.76,11,33.06,33.06,0,0,1-24.26,10,32.5,32.5,0,0,1-24.09-10,33.29,33.29,0,0,1-9.86-24.26A37,37,0,0,1,5092.8,659.39ZM5354.43,466l-56.27-145.21L5241.89,466Z"/><path d="M5554.94,674.91V226a35.09,35.09,0,0,1,2.58-13.42,33.32,33.32,0,0,1,7.28-11,33.78,33.78,0,0,1,10.83-7.27,34.61,34.61,0,0,1,13.59-2.59q15.2,0,26.52,12.61l288.47,370.94V226a34.28,34.28,0,1,1,68.56,0V674.91a34.76,34.76,0,0,1-2.59,13.59,33.81,33.81,0,0,1-7.28,10.83,33.28,33.28,0,0,1-11,7.28,35.13,35.13,0,0,1-13.42,2.58q-15.21,0-26.2-12L5623.5,326.29V674.91a34.28,34.28,0,1,1-68.56,0Z"/><path d="M6418.73,592.77a32.16,32.16,0,0,1,13.26,2.75,37.55,37.55,0,0,1,10.83,7.28A33.79,33.79,0,0,1,6453,627.05q0,13.59-10.67,24.58-72.12,57.57-162.67,57.56-107.37,0-183-75.67t-75.68-183q0-107,75.68-182.72,76-76,183-76,91.84,0,165.9,60.47,9,8.75,9.06,23.61a34.76,34.76,0,0,1-2.59,13.59,33.81,33.81,0,0,1-7.28,10.83,33.28,33.28,0,0,1-11,7.28,35.13,35.13,0,0,1-13.42,2.58q-12.62,0-23.61-9.7a186,186,0,0,0-54.17-29.75,189.19,189.19,0,0,0-62.9-10.35q-78.91,0-134.86,55.95-55.29,55.29-55.3,134.21,0,79.23,55.3,134.53,55.62,55.62,134.86,55.62,67.59,0,119-41.71Q6407.08,593.09,6418.73,592.77Z"/><path d="M6832.35,640.63a34.28,34.28,0,1,1,0,68.56H6533.21a34.71,34.71,0,0,1-13.58-2.58,33.83,33.83,0,0,1-18.11-18.11,34.58,34.58,0,0,1-2.59-13.59V226a34.91,34.91,0,0,1,2.59-13.42,33.29,33.29,0,0,1,7.27-11,33.83,33.83,0,0,1,10.84-7.27,34.53,34.53,0,0,1,13.58-2.59h299.14a34.3,34.3,0,0,1,24.26,58.53,33,33,0,0,1-24.26,10H6567.49V416.2h190.16a34.28,34.28,0,1,1,0,68.56H6567.49V640.63Z"/></g></g></svg>