<?xml version="1.0" encoding="UTF-8"?>
<svg id="_图层_2" data-name="图层_2" xmlns="http://www.w3.org/2000/svg" viewBox="0 0 3891.66 932">
  <defs>
    <style>
      .cls-1 {
        fill: #db241e;
      }
    </style>
  </defs>
  <g id="_图层_1-2" data-name="图层_1">
    <g id="_图层_2-2" data-name="图层_2">
      <g id="_图层_1-2" data-name="图层_1-2">
        <path class="cls-1" d="M0,932V0h1098v932H0ZM1014,854V80H78.2v774h935.8Z"/>
        <path class="cls-1" d="M958.7,672.5v119H131.5v-118.9h128.2v39.3h98.3v-39.3h128.8v39.4h117.3v-39.4h128.6v39.4h97.5v-39.4c43-.1,85.5-.1,128.5-.1Z"/>
        <path class="cls-1" d="M830.2,403.4h128.4v116.2H131.5v-123h128v43.2h570.6c.1-12.1.1-24,.1-36.4Z"/>
        <path class="cls-1" d="M958.7,381.6H131.5v-79.2h363.5v-39.9h128.8v39.6h334.9v79.5Z"/>
        <path class="cls-1" d="M131.4,164.2h363.6v-37.6h128.8v37.5h334.8v79.4H131.5c-.1-26.3-.1-52.4-.1-79.3Z"/>
        <path class="cls-1" d="M958.9,557.6v78.8H131.5v-78.8h827.4Z"/>
      </g>
    </g>
    <g>
      <path d="M1329.34,680.44V227.67c0-4.78.87-9.3,2.61-13.54,1.74-4.24,4.18-7.94,7.34-11.09,3.15-3.15,6.79-5.6,10.93-7.34,4.13-1.74,8.7-2.61,13.7-2.61h100.47c15.66,0,30.83,2.07,45.51,6.2,14.68,4.13,28.43,10.01,41.26,17.61,12.83,7.61,24.57,16.69,35.23,27.24,10.65,10.55,19.74,22.24,27.24,35.07,7.5,12.83,13.37,26.59,17.62,41.26s6.36,29.85,6.36,45.51c0,47.41-17.07,88.19-51.21,122.33-33.71,33.71-74.37,50.56-122,50.56h-65.89v141.57c0,9.57-3.37,17.73-10.11,24.46s-14.9,10.11-24.46,10.11-17.73-3.37-24.47-10.11c-6.74-6.74-10.11-14.89-10.11-24.46ZM1398.49,262.25v207.47h65.89c14.13,0,27.45-2.72,39.96-8.16,12.5-5.43,23.49-12.83,32.95-22.18,9.46-9.35,16.96-20.33,22.51-32.95,5.55-12.61,8.32-26.1,8.32-40.45s-2.77-28.16-8.32-40.78c-5.55-12.61-13.05-23.59-22.51-32.95-9.46-9.35-20.5-16.69-33.11-22.02-12.61-5.33-25.88-7.99-39.8-7.99h-65.89Z"/>
      <path d="M2118.75,632.16c0,9.13-3.59,17.4-10.76,24.79-48.5,38.71-103.19,58.06-164.08,58.06-72.2,0-133.74-25.44-184.63-76.33s-76.33-112.43-76.33-184.63,25.44-133.42,76.33-184.3c51.1-51.1,112.65-76.66,184.63-76.66,61.76,0,117.54,20.34,167.34,61,6.09,5.66,9.13,13.59,9.13,23.81,0,5.01-.87,9.57-2.61,13.7-1.74,4.13-4.19,7.78-7.34,10.93-3.15,3.16-6.85,5.6-11.09,7.34-4.24,1.74-8.76,2.61-13.54,2.61-8.92,0-16.86-3.26-23.81-9.79-16.53-13.05-34.74-23.05-54.64-30.01-19.9-6.96-41.05-10.44-63.45-10.44-53.06,0-98.41,18.81-136.03,56.43s-55.78,82.32-55.78,135.37,18.59,98.51,55.78,135.7c37.4,37.41,82.74,56.11,136.03,56.11,39.36,0,74.59-10.33,105.69-30.99v-101.12h-90.03c-9.79,0-18-3.31-24.63-9.95-6.64-6.63-9.95-14.84-9.95-24.63,0-4.78.87-9.3,2.61-13.54,1.74-4.24,4.18-7.94,7.34-11.09s6.79-5.6,10.93-7.34c4.13-1.74,8.7-2.61,13.7-2.61h124.94c4.57,0,8.91.93,13.05,2.77,4.13,1.85,7.77,4.35,10.93,7.5,3.15,3.15,5.65,6.85,7.5,11.09,1.84,4.24,2.77,8.64,2.77,13.21v152.99Z"/>
      <path d="M2177.79,642.6c-4.57-5.87-6.85-12.83-6.85-20.88,0-4.78.87-9.3,2.61-13.54,1.74-4.24,4.18-7.94,7.34-11.09,3.15-3.15,6.79-5.6,10.93-7.34,4.13-1.74,8.7-2.61,13.7-2.61,12.83,0,22.51,5.33,29.03,15.98,9.13,14.14,20.55,24.79,34.25,31.97s28.49,10.76,44.36,10.76c12.4,0,24.08-2.45,35.07-7.34,10.98-4.89,20.55-11.47,28.71-19.74,8.15-8.26,14.62-17.99,19.41-29.2,4.78-11.2,7.18-23.1,7.18-35.72,0-11.96-2.23-23.21-6.69-33.76-4.46-10.55-10.5-19.79-18.1-27.73-7.62-7.94-16.47-14.4-26.59-19.41-10.11-5-20.83-8.04-32.13-9.13-17.4-1.52-33.6-6.09-48.6-13.7-15-7.61-28.17-17.45-39.47-29.52-11.31-12.07-20.17-25.88-26.58-41.43-6.42-15.55-9.62-32.02-9.62-49.42,0-21.31,4.02-40.61,12.07-57.9,8.04-17.29,19.9-32.67,35.56-46.16h-.33c25.01-21.74,54.36-32.62,88.08-32.62,10.87,0,21.74,1.36,32.62,4.08,10.87,2.72,21.37,6.85,31.48,12.4s19.57,12.45,28.38,20.71c8.81,8.27,16.69,17.94,23.65,29.03,3.26,5.66,4.89,11.86,4.89,18.59,0,5.01-.87,9.57-2.61,13.7-1.74,4.13-4.19,7.78-7.34,10.93-3.16,3.16-6.85,5.6-11.09,7.34-4.24,1.74-8.76,2.61-13.54,2.61-4.35,0-8.21-.65-11.58-1.96-3.37-1.31-6.42-3.15-9.13-5.55-2.72-2.39-5.33-5.16-7.83-8.32-2.5-3.15-5.17-6.79-7.99-10.93-5.22-7.61-12.34-13.32-21.37-17.13-9.03-3.8-18.76-5.71-29.2-5.71-8.27,0-16.31,1.69-24.14,5.06-7.83,3.37-14.79,7.99-20.88,13.86-6.09,5.87-11.04,12.83-14.84,20.88-3.81,8.05-5.71,16.75-5.71,26.1,0,8.48,1.57,16.53,4.73,24.14,3.15,7.61,7.45,14.41,12.88,20.39,5.43,5.98,11.79,10.88,19.08,14.68,7.28,3.81,15.17,6.03,23.65,6.69,20.22,1.52,39.25,6.74,57.08,15.66,17.83,8.92,33.44,20.5,46.81,34.74,13.37,14.25,23.98,30.61,31.8,49.09,7.83,18.49,11.74,37.95,11.74,58.39,0,50.89-18.81,92.21-56.43,123.96h.33c-30.23,25.66-64.59,38.49-103.08,38.49-12.83,0-25.66-1.58-38.49-4.73-12.83-3.15-25.17-7.77-37.02-13.86-11.86-6.09-22.95-13.7-33.27-22.83-10.33-9.13-19.3-19.46-26.91-30.99Z"/>
      <path d="M2919.25,597.58c4.78,0,9.24.93,13.37,2.77,4.13,1.85,7.77,4.3,10.93,7.34,3.15,3.05,5.65,6.69,7.5,10.93,1.84,4.24,2.77,8.76,2.77,13.54,0,9.13-3.59,17.4-10.76,24.79-48.5,38.71-103.19,58.06-164.08,58.06-72.2,0-133.74-25.44-184.63-76.33s-76.33-112.43-76.33-184.63,25.44-133.42,76.33-184.3c51.1-51.1,112.65-76.66,184.63-76.66,61.76,0,117.54,20.34,167.34,61,6.09,5.87,9.13,13.81,9.13,23.81,0,5.01-.87,9.57-2.61,13.7-1.74,4.13-4.19,7.78-7.34,10.93-3.15,3.16-6.85,5.6-11.09,7.34-4.24,1.74-8.76,2.61-13.54,2.61-8.48,0-16.42-3.26-23.81-9.79-16.53-13.05-34.74-23.05-54.64-30.01-19.9-6.96-41.05-10.44-63.45-10.44-53.06,0-98.41,18.81-136.03,56.43s-55.78,82.32-55.78,135.37,18.59,98.51,55.78,135.7c37.4,37.41,82.74,56.11,136.03,56.11,45.45,0,85.46-14.03,120.04-42.08,5.65-3.91,12.4-5.98,20.22-6.2Z"/>
      <path d="M3004.06,664.78l174.19-448.2c6.96-15.66,17.94-23.49,32.95-23.49s26.42,7.83,32.95,23.49l174.85,449.83c1.74,4.35,2.61,9.03,2.61,14.03,0,9.57-3.37,17.73-10.11,24.46s-14.9,10.11-24.47,10.11-17.61-3.37-24.14-10.11c-3.48-3.48-6.09-7.18-7.83-11.09l-60.35-154.95h-167.02l-60.67,154.95c-1.74,3.91-4.35,7.61-7.83,11.09-6.74,6.74-14.9,10.11-24.46,10.11s-17.67-3.37-24.3-10.11c-6.64-6.74-9.95-14.89-9.95-24.46,0-5.22,1.19-10.44,3.59-15.66ZM3267.96,469.71l-56.76-146.47-56.76,146.47h113.52Z"/>
      <path d="M3470.21,680.44V227.67c0-4.78.87-9.3,2.61-13.54,1.74-4.24,4.18-7.94,7.34-11.09,3.15-3.15,6.79-5.6,10.93-7.34,4.13-1.74,8.7-2.61,13.7-2.61,10.22,0,19.13,4.24,26.75,12.72l290.97,374.16V227.67c0-9.57,3.37-17.72,10.11-24.46s14.89-10.11,24.46-10.11,17.72,3.37,24.47,10.11c6.74,6.74,10.11,14.9,10.11,24.46v452.77c0,5-.87,9.57-2.61,13.7-1.74,4.13-4.19,7.78-7.34,10.93s-6.85,5.6-11.09,7.34c-4.24,1.74-8.76,2.61-13.54,2.61-10.22,0-19.03-4.02-26.42-12.07l-291.3-374.16v351.65c0,9.57-3.37,17.73-10.11,24.46s-14.9,10.11-24.46,10.11-17.73-3.37-24.47-10.11c-6.74-6.74-10.11-14.89-10.11-24.46Z"/>
    </g>
  </g>
</svg>